<?xml version="1.0" encoding="UTF-8" standalone="no"?>
<!DOCTYPE svg PUBLIC "-//W3C//DTD SVG 1.1//EN"
 "http://www.w3.org/Graphics/SVG/1.1/DTD/svg11.dtd">
<!-- Generated by graphviz version 2.47.3 (20210619.1520)
 -->
<!-- Title: dependencies Pages: 1 -->
<svg width="928pt" height="358pt"
 viewBox="0.00 0.00 928.00 358.39" xmlns="http://www.w3.org/2000/svg" xmlns:xlink="http://www.w3.org/1999/xlink">
<g id="graph0" class="graph" transform="scale(1 1) rotate(0) translate(4 354.39)">
<title>dependencies</title>
<polygon fill="white" stroke="transparent" points="-4,4 -4,-354.39 924,-354.39 924,4 -4,4"/>
<text text-anchor="middle" x="460" y="-8.2" font-family="sans-serif" font-size="14.00">dependencies</text>
<g id="clust1" class="cluster">
<title>cluster_FluentFormModule</title>
<polygon fill="none" stroke="black" stroke-dasharray="1,5" points="8,-32.8 8,-342.39 912,-342.39 912,-32.8 8,-32.8"/>
</g>
<g id="clust2" class="cluster">
<title>cluster_FluentFormModule_declarations</title>
<polygon fill="none" stroke="black" points="108,-152.39 108,-204.39 542,-204.39 542,-152.39 108,-152.39"/>
</g>
<g id="clust3" class="cluster">
<title>cluster_FluentFormModule_FluentFormComponent_providers</title>
<polygon fill="none" stroke="black" points="16,-40.8 16,-139.39 904,-139.39 904,-40.8 16,-40.8"/>
</g>
<g id="clust6" class="cluster">
<title>cluster_FluentFormModule_exports</title>
<polygon fill="none" stroke="black" points="159,-282.39 159,-334.39 325,-334.39 325,-282.39 159,-282.39"/>
</g>
<!-- FluentFormComponent -->
<g id="node1" class="node">
<title>FluentFormComponent</title>
<polygon fill="#ffffb3" stroke="black" points="533.95,-196.39 386.05,-196.39 386.05,-160.39 533.95,-160.39 533.95,-196.39"/>
<text text-anchor="middle" x="460" y="-174.19" font-family="Times,serif" font-size="14.00">FluentFormComponent</text>
</g>
<!-- FluentFormModule -->
<g id="node3" class="node">
<title>FluentFormModule</title>
<polygon fill="#8dd3c7" stroke="black" points="304.66,-261.39 301.66,-265.39 280.66,-265.39 277.66,-261.39 179.34,-261.39 179.34,-225.39 304.66,-225.39 304.66,-261.39"/>
<text text-anchor="middle" x="242" y="-239.19" font-family="Times,serif" font-size="14.00">FluentFormModule</text>
</g>
<!-- FluentFormComponent&#45;&gt;FluentFormModule -->
<g id="edge1" class="edge">
<title>FluentFormComponent&#45;&gt;FluentFormModule</title>
<path fill="none" stroke="black" d="M460,-196.5C460,-215.73 460,-243.39 460,-243.39 460,-243.39 314.76,-243.39 314.76,-243.39"/>
<polygon fill="black" stroke="black" points="314.76,-239.89 304.76,-243.39 314.76,-246.89 314.76,-239.89"/>
</g>
<!-- FluentFormControlNamePipe -->
<g id="node2" class="node">
<title>FluentFormControlNamePipe</title>
<ellipse fill="#ffffb3" stroke="black" cx="242" cy="-178.39" rx="126.24" ry="18"/>
<text text-anchor="middle" x="242" y="-174.19" font-family="Times,serif" font-size="14.00">FluentFormControlNamePipe</text>
</g>
<!-- FluentFormControlNamePipe&#45;&gt;FluentFormModule -->
<g id="edge3" class="edge">
<title>FluentFormControlNamePipe&#45;&gt;FluentFormModule</title>
<path fill="none" stroke="black" d="M262.94,-196.15C262.94,-196.15 262.94,-215.2 262.94,-215.2"/>
<polygon fill="black" stroke="black" points="259.44,-215.2 262.94,-225.2 266.44,-215.2 259.44,-215.2"/>
</g>
<!-- FluentFormControlNamePipe&#45;&gt;FluentFormModule -->
<g id="edge5" class="edge">
<title>FluentFormControlNamePipe&#45;&gt;FluentFormModule</title>
<path fill="none" stroke="black" d="M221.06,-196.15C221.06,-196.15 221.06,-215.2 221.06,-215.2"/>
<polygon fill="black" stroke="black" points="217.56,-215.2 221.06,-225.2 224.56,-215.2 217.56,-215.2"/>
</g>
<!-- FluentFormComponent  -->
<g id="node5" class="node">
<title>FluentFormComponent </title>
<polygon fill="#fb8072" stroke="black" points="317.44,-326.39 166.56,-326.39 166.56,-290.39 317.44,-290.39 317.44,-326.39"/>
<text text-anchor="middle" x="242" y="-304.19" font-family="Times,serif" font-size="14.00">FluentFormComponent </text>
</g>
<!-- FluentFormModule&#45;&gt;FluentFormComponent  -->
<g id="edge4" class="edge">
<title>FluentFormModule&#45;&gt;FluentFormComponent </title>
<path fill="none" stroke="black" stroke-dasharray="5,2" d="M242,-261.5C242,-261.5 242,-280.38 242,-280.38"/>
<polygon fill="black" stroke="black" points="238.5,-280.38 242,-290.38 245.5,-280.38 238.5,-280.38"/>
</g>
<!-- {
 &#160;&#160;&#160;provide: NG_VALUE_ACCESSOR, useExisting: forwardRef(() =&gt; FluentFormComponent), multi: true
} -->
<g id="node4" class="node">
<title>{
 &#160;&#160;&#160;provide: NG_VALUE_ACCESSOR, useExisting: forwardRef(() =&gt; FluentFormComponent), multi: true
}</title>
<ellipse fill="#fdb462" stroke="black" cx="460" cy="-90.1" rx="436.02" ry="41.09"/>
<text text-anchor="middle" x="460" y="-102.7" font-family="Times,serif" font-size="14.00">{</text>
<text text-anchor="middle" x="460" y="-85.9" font-family="Times,serif" font-size="14.00"> &#160;&#160;&#160;provide: NG_VALUE_ACCESSOR, useExisting: forwardRef(() =&gt; FluentFormComponent), multi: true</text>
<text text-anchor="middle" x="460" y="-69.1" font-family="Times,serif" font-size="14.00">}</text>
</g>
<!-- {
 &#160;&#160;&#160;provide: NG_VALUE_ACCESSOR, useExisting: forwardRef(() =&gt; FluentFormComponent), multi: true
}&#45;&gt;FluentFormComponent -->
<g id="edge2" class="edge">
<title>{
 &#160;&#160;&#160;provide: NG_VALUE_ACCESSOR, useExisting: forwardRef(() =&gt; FluentFormComponent), multi: true
}&#45;&gt;FluentFormComponent</title>
<path fill="none" stroke="black" d="M460,-131.4C460,-131.4 460,-150.06 460,-150.06"/>
<polygon fill="black" stroke="black" points="456.5,-150.06 460,-160.06 463.5,-150.06 456.5,-150.06"/>
</g>
</g>
</svg>
