<?xml version="1.0" encoding="UTF-8" standalone="no"?>
<!DOCTYPE svg PUBLIC "-//W3C//DTD SVG 1.1//EN"
 "http://www.w3.org/Graphics/SVG/1.1/DTD/svg11.dtd">
<!-- Generated by graphviz version 2.47.3 (20210619.1520)
 -->
<!-- Title: dependencies Pages: 1 -->
<svg width="474pt" height="247pt"
 viewBox="0.00 0.00 474.00 246.80" xmlns="http://www.w3.org/2000/svg" xmlns:xlink="http://www.w3.org/1999/xlink">
<g id="graph0" class="graph" transform="scale(1 1) rotate(0) translate(4 242.8)">
<title>dependencies</title>
<polygon fill="white" stroke="transparent" points="-4,4 -4,-242.8 470,-242.8 470,4 -4,4"/>
<text text-anchor="middle" x="233" y="-8.2" font-family="sans-serif" font-size="14.00">dependencies</text>
<g id="clust1" class="cluster">
<title>cluster_FluentFormModule</title>
<polygon fill="none" stroke="black" stroke-dasharray="1,5" points="8,-32.8 8,-230.8 458,-230.8 458,-32.8 8,-32.8"/>
</g>
<g id="clust2" class="cluster">
<title>cluster_FluentFormModule_declarations</title>
<polygon fill="none" stroke="black" points="16,-40.8 16,-92.8 450,-92.8 450,-40.8 16,-40.8"/>
</g>
<g id="clust6" class="cluster">
<title>cluster_FluentFormModule_exports</title>
<polygon fill="none" stroke="black" points="67,-170.8 67,-222.8 233,-222.8 233,-170.8 67,-170.8"/>
</g>
<!-- FluentFormComponent -->
<g id="node1" class="node">
<title>FluentFormComponent</title>
<polygon fill="#ffffb3" stroke="black" points="441.95,-84.8 294.05,-84.8 294.05,-48.8 441.95,-48.8 441.95,-84.8"/>
<text text-anchor="middle" x="368" y="-62.6" font-family="Times,serif" font-size="14.00">FluentFormComponent</text>
</g>
<!-- FluentFormModule -->
<g id="node3" class="node">
<title>FluentFormModule</title>
<polygon fill="#8dd3c7" stroke="black" points="212.66,-149.8 209.66,-153.8 188.66,-153.8 185.66,-149.8 87.34,-149.8 87.34,-113.8 212.66,-113.8 212.66,-149.8"/>
<text text-anchor="middle" x="150" y="-127.6" font-family="Times,serif" font-size="14.00">FluentFormModule</text>
</g>
<!-- FluentFormComponent&#45;&gt;FluentFormModule -->
<g id="edge1" class="edge">
<title>FluentFormComponent&#45;&gt;FluentFormModule</title>
<path fill="none" stroke="black" d="M368,-84.91C368,-104.14 368,-131.8 368,-131.8 368,-131.8 222.76,-131.8 222.76,-131.8"/>
<polygon fill="black" stroke="black" points="222.76,-128.3 212.76,-131.8 222.76,-135.3 222.76,-128.3"/>
</g>
<!-- FluentFormControlNamePipe -->
<g id="node2" class="node">
<title>FluentFormControlNamePipe</title>
<ellipse fill="#ffffb3" stroke="black" cx="150" cy="-66.8" rx="126.24" ry="18"/>
<text text-anchor="middle" x="150" y="-62.6" font-family="Times,serif" font-size="14.00">FluentFormControlNamePipe</text>
</g>
<!-- FluentFormControlNamePipe&#45;&gt;FluentFormModule -->
<g id="edge2" class="edge">
<title>FluentFormControlNamePipe&#45;&gt;FluentFormModule</title>
<path fill="none" stroke="black" d="M170.94,-84.56C170.94,-84.56 170.94,-103.61 170.94,-103.61"/>
<polygon fill="black" stroke="black" points="167.44,-103.61 170.94,-113.61 174.44,-103.61 167.44,-103.61"/>
</g>
<!-- FluentFormControlNamePipe&#45;&gt;FluentFormModule -->
<g id="edge4" class="edge">
<title>FluentFormControlNamePipe&#45;&gt;FluentFormModule</title>
<path fill="none" stroke="black" d="M129.06,-84.56C129.06,-84.56 129.06,-103.61 129.06,-103.61"/>
<polygon fill="black" stroke="black" points="125.56,-103.61 129.06,-113.61 132.56,-103.61 125.56,-103.61"/>
</g>
<!-- FluentFormComponent  -->
<g id="node4" class="node">
<title>FluentFormComponent </title>
<polygon fill="#fb8072" stroke="black" points="225.44,-214.8 74.56,-214.8 74.56,-178.8 225.44,-178.8 225.44,-214.8"/>
<text text-anchor="middle" x="150" y="-192.6" font-family="Times,serif" font-size="14.00">FluentFormComponent </text>
</g>
<!-- FluentFormModule&#45;&gt;FluentFormComponent  -->
<g id="edge3" class="edge">
<title>FluentFormModule&#45;&gt;FluentFormComponent </title>
<path fill="none" stroke="black" stroke-dasharray="5,2" d="M150,-149.91C150,-149.91 150,-168.79 150,-168.79"/>
<polygon fill="black" stroke="black" points="146.5,-168.79 150,-178.79 153.5,-168.79 146.5,-168.79"/>
</g>
</g>
</svg>
