<?xml version="1.0" encoding="UTF-8" standalone="no"?>
<!DOCTYPE svg PUBLIC "-//W3C//DTD SVG 1.1//EN"
 "http://www.w3.org/Graphics/SVG/1.1/DTD/svg11.dtd">
<!-- Generated by graphviz version 2.47.3 (20210619.1520)
 -->
<!-- Title: dependencies Pages: 1 -->
<svg width="928pt" height="358pt"
 viewBox="0.00 0.00 928.00 358.39" xmlns="http://www.w3.org/2000/svg" xmlns:xlink="http://www.w3.org/1999/xlink">
<g id="graph0" class="graph" transform="scale(1 1) rotate(0) translate(4 354.39)">
<title>dependencies</title>
<polygon fill="white" stroke="transparent" points="-4,4 -4,-354.39 924,-354.39 924,4 -4,4"/>
<text text-anchor="middle" x="460" y="-8.2" font-family="sans-serif" font-size="14.00">dependencies</text>
<g id="clust1" class="cluster">
<title>cluster_FluentFormModule</title>
<polygon fill="none" stroke="black" stroke-dasharray="1,5" points="8,-32.8 8,-342.39 912,-342.39 912,-32.8 8,-32.8"/>
</g>
<g id="clust8" class="cluster">
<title>cluster_FluentFormModule_providers</title>
<polygon fill="none" stroke="black" points="550,-152.39 550,-204.39 818,-204.39 818,-152.39 550,-152.39"/>
</g>
<g id="clust2" class="cluster">
<title>cluster_FluentFormModule_declarations</title>
<polygon fill="none" stroke="black" points="378,-152.39 378,-204.39 542,-204.39 542,-152.39 378,-152.39"/>
</g>
<g id="clust3" class="cluster">
<title>cluster_FluentFormModule_FluentFormComponent_providers</title>
<polygon fill="none" stroke="black" points="16,-40.8 16,-139.39 904,-139.39 904,-40.8 16,-40.8"/>
</g>
<g id="clust6" class="cluster">
<title>cluster_FluentFormModule_exports</title>
<polygon fill="none" stroke="black" points="601,-282.39 601,-334.39 767,-334.39 767,-282.39 601,-282.39"/>
</g>
<!-- FluentFormComponent -->
<g id="node1" class="node">
<title>FluentFormComponent</title>
<polygon fill="#ffffb3" stroke="black" points="533.95,-196.39 386.05,-196.39 386.05,-160.39 533.95,-160.39 533.95,-196.39"/>
<text text-anchor="middle" x="460" y="-174.19" font-family="Times,serif" font-size="14.00">FluentFormComponent</text>
</g>
<!-- FluentFormModule -->
<g id="node3" class="node">
<title>FluentFormModule</title>
<polygon fill="#8dd3c7" stroke="black" points="746.66,-261.39 743.66,-265.39 722.66,-265.39 719.66,-261.39 621.34,-261.39 621.34,-225.39 746.66,-225.39 746.66,-261.39"/>
<text text-anchor="middle" x="684" y="-239.19" font-family="Times,serif" font-size="14.00">FluentFormModule</text>
</g>
<!-- FluentFormComponent&#45;&gt;FluentFormModule -->
<g id="edge1" class="edge">
<title>FluentFormComponent&#45;&gt;FluentFormModule</title>
<path fill="none" stroke="black" d="M460,-196.5C460,-215.73 460,-243.39 460,-243.39 460,-243.39 611.31,-243.39 611.31,-243.39"/>
<polygon fill="black" stroke="black" points="611.31,-246.89 621.31,-243.39 611.31,-239.89 611.31,-246.89"/>
</g>
<!-- FluentFormControlNamePipe -->
<g id="node2" class="node">
<title>FluentFormControlNamePipe</title>
<ellipse fill="#ffffb3" stroke="black" cx="684" cy="-178.39" rx="126.24" ry="18"/>
<text text-anchor="middle" x="684" y="-174.19" font-family="Times,serif" font-size="14.00">FluentFormControlNamePipe</text>
</g>
<!-- FluentFormControlNamePipe&#45;&gt;FluentFormModule -->
<g id="edge3" class="edge">
<title>FluentFormControlNamePipe&#45;&gt;FluentFormModule</title>
<path fill="none" stroke="black" d="M704.94,-196.15C704.94,-196.15 704.94,-215.2 704.94,-215.2"/>
<polygon fill="black" stroke="black" points="701.44,-215.2 704.94,-225.2 708.44,-215.2 701.44,-215.2"/>
</g>
<!-- FluentFormControlNamePipe&#45;&gt;FluentFormModule -->
<g id="edge5" class="edge">
<title>FluentFormControlNamePipe&#45;&gt;FluentFormModule</title>
<path fill="none" stroke="black" d="M663.06,-196.15C663.06,-196.15 663.06,-215.2 663.06,-215.2"/>
<polygon fill="black" stroke="black" points="659.56,-215.2 663.06,-225.2 666.56,-215.2 659.56,-215.2"/>
</g>
<!-- FluentFormComponent  -->
<g id="node5" class="node">
<title>FluentFormComponent </title>
<polygon fill="#fb8072" stroke="black" points="759.44,-326.39 608.56,-326.39 608.56,-290.39 759.44,-290.39 759.44,-326.39"/>
<text text-anchor="middle" x="684" y="-304.19" font-family="Times,serif" font-size="14.00">FluentFormComponent </text>
</g>
<!-- FluentFormModule&#45;&gt;FluentFormComponent  -->
<g id="edge4" class="edge">
<title>FluentFormModule&#45;&gt;FluentFormComponent </title>
<path fill="none" stroke="black" stroke-dasharray="5,2" d="M684,-261.5C684,-261.5 684,-280.38 684,-280.38"/>
<polygon fill="black" stroke="black" points="680.5,-280.38 684,-290.38 687.5,-280.38 680.5,-280.38"/>
</g>
<!-- {
 &#160;&#160;&#160;provide: NG_VALUE_ACCESSOR, useExisting: forwardRef(() =&gt; FluentFormComponent), multi: true
} -->
<g id="node4" class="node">
<title>{
 &#160;&#160;&#160;provide: NG_VALUE_ACCESSOR, useExisting: forwardRef(() =&gt; FluentFormComponent), multi: true
}</title>
<ellipse fill="#fdb462" stroke="black" cx="460" cy="-90.1" rx="436.02" ry="41.09"/>
<text text-anchor="middle" x="460" y="-102.7" font-family="Times,serif" font-size="14.00">{</text>
<text text-anchor="middle" x="460" y="-85.9" font-family="Times,serif" font-size="14.00"> &#160;&#160;&#160;provide: NG_VALUE_ACCESSOR, useExisting: forwardRef(() =&gt; FluentFormComponent), multi: true</text>
<text text-anchor="middle" x="460" y="-69.1" font-family="Times,serif" font-size="14.00">}</text>
</g>
<!-- {
 &#160;&#160;&#160;provide: NG_VALUE_ACCESSOR, useExisting: forwardRef(() =&gt; FluentFormComponent), multi: true
}&#45;&gt;FluentFormComponent -->
<g id="edge2" class="edge">
<title>{
 &#160;&#160;&#160;provide: NG_VALUE_ACCESSOR, useExisting: forwardRef(() =&gt; FluentFormComponent), multi: true
}&#45;&gt;FluentFormComponent</title>
<path fill="none" stroke="black" d="M460,-131.4C460,-131.4 460,-150.06 460,-150.06"/>
<polygon fill="black" stroke="black" points="456.5,-150.06 460,-160.06 463.5,-150.06 456.5,-150.06"/>
</g>
</g>
</svg>
