<?xml version="1.0" encoding="UTF-8" standalone="no"?>
<!DOCTYPE svg PUBLIC "-//W3C//DTD SVG 1.1//EN"
 "http://www.w3.org/Graphics/SVG/1.1/DTD/svg11.dtd">
<!-- Generated by graphviz version 2.47.3 (20210619.1520)
 -->
<!-- Title: dependencies Pages: 1 -->
<svg width="480pt" height="247pt"
 viewBox="0.00 0.00 480.00 246.80" xmlns="http://www.w3.org/2000/svg" xmlns:xlink="http://www.w3.org/1999/xlink">
<g id="graph0" class="graph" transform="scale(1 1) rotate(0) translate(4 242.8)">
<title>dependencies</title>
<polygon fill="white" stroke="transparent" points="-4,4 -4,-242.8 476,-242.8 476,4 -4,4"/>
<text text-anchor="middle" x="236" y="-8.2" font-family="sans-serif" font-size="14.00">dependencies</text>
<g id="clust1" class="cluster">
<title>cluster_FluentFormModule</title>
<polygon fill="none" stroke="black" stroke-dasharray="1,5" points="8,-32.8 8,-230.8 464,-230.8 464,-32.8 8,-32.8"/>
</g>
<g id="clust8" class="cluster">
<title>cluster_FluentFormModule_providers</title>
<polygon fill="none" stroke="black" points="188,-40.8 188,-92.8 456,-92.8 456,-40.8 188,-40.8"/>
</g>
<g id="clust2" class="cluster">
<title>cluster_FluentFormModule_declarations</title>
<polygon fill="none" stroke="black" points="16,-40.8 16,-92.8 180,-92.8 180,-40.8 16,-40.8"/>
</g>
<g id="clust6" class="cluster">
<title>cluster_FluentFormModule_exports</title>
<polygon fill="none" stroke="black" points="239,-170.8 239,-222.8 405,-222.8 405,-170.8 239,-170.8"/>
</g>
<!-- FluentFormComponent -->
<g id="node1" class="node">
<title>FluentFormComponent</title>
<polygon fill="#ffffb3" stroke="black" points="171.95,-84.8 24.05,-84.8 24.05,-48.8 171.95,-48.8 171.95,-84.8"/>
<text text-anchor="middle" x="98" y="-62.6" font-family="Times,serif" font-size="14.00">FluentFormComponent</text>
</g>
<!-- FluentFormModule -->
<g id="node3" class="node">
<title>FluentFormModule</title>
<polygon fill="#8dd3c7" stroke="black" points="384.66,-149.8 381.66,-153.8 360.66,-153.8 357.66,-149.8 259.34,-149.8 259.34,-113.8 384.66,-113.8 384.66,-149.8"/>
<text text-anchor="middle" x="322" y="-127.6" font-family="Times,serif" font-size="14.00">FluentFormModule</text>
</g>
<!-- FluentFormComponent&#45;&gt;FluentFormModule -->
<g id="edge1" class="edge">
<title>FluentFormComponent&#45;&gt;FluentFormModule</title>
<path fill="none" stroke="black" d="M98,-84.91C98,-104.14 98,-131.8 98,-131.8 98,-131.8 249.31,-131.8 249.31,-131.8"/>
<polygon fill="black" stroke="black" points="249.31,-135.3 259.31,-131.8 249.31,-128.3 249.31,-135.3"/>
</g>
<!-- FluentFormControlNamePipe -->
<g id="node2" class="node">
<title>FluentFormControlNamePipe</title>
<ellipse fill="#ffffb3" stroke="black" cx="322" cy="-66.8" rx="126.24" ry="18"/>
<text text-anchor="middle" x="322" y="-62.6" font-family="Times,serif" font-size="14.00">FluentFormControlNamePipe</text>
</g>
<!-- FluentFormControlNamePipe&#45;&gt;FluentFormModule -->
<g id="edge2" class="edge">
<title>FluentFormControlNamePipe&#45;&gt;FluentFormModule</title>
<path fill="none" stroke="black" d="M342.94,-84.56C342.94,-84.56 342.94,-103.61 342.94,-103.61"/>
<polygon fill="black" stroke="black" points="339.44,-103.61 342.94,-113.61 346.44,-103.61 339.44,-103.61"/>
</g>
<!-- FluentFormControlNamePipe&#45;&gt;FluentFormModule -->
<g id="edge4" class="edge">
<title>FluentFormControlNamePipe&#45;&gt;FluentFormModule</title>
<path fill="none" stroke="black" d="M301.06,-84.56C301.06,-84.56 301.06,-103.61 301.06,-103.61"/>
<polygon fill="black" stroke="black" points="297.56,-103.61 301.06,-113.61 304.56,-103.61 297.56,-103.61"/>
</g>
<!-- FluentFormComponent  -->
<g id="node4" class="node">
<title>FluentFormComponent </title>
<polygon fill="#fb8072" stroke="black" points="397.44,-214.8 246.56,-214.8 246.56,-178.8 397.44,-178.8 397.44,-214.8"/>
<text text-anchor="middle" x="322" y="-192.6" font-family="Times,serif" font-size="14.00">FluentFormComponent </text>
</g>
<!-- FluentFormModule&#45;&gt;FluentFormComponent  -->
<g id="edge3" class="edge">
<title>FluentFormModule&#45;&gt;FluentFormComponent </title>
<path fill="none" stroke="black" stroke-dasharray="5,2" d="M322,-149.91C322,-149.91 322,-168.79 322,-168.79"/>
<polygon fill="black" stroke="black" points="318.5,-168.79 322,-178.79 325.5,-168.79 318.5,-168.79"/>
</g>
</g>
</svg>
